# xmcd CD database file
#
# Track frame offsets:
#	150
#	11311
#	31592
#	39589
#	51454
#	64143
#	77205
#	86453
#	112671
#	132684
#	152480
#	170852
#
# Disc length: 2525 seconds
#
# Revision: 0
# Processed by: cddbd v1.5.1PL2 Copyright (c) Steve Scherf et al.
# Submitted via: CDex 1.51
#
DISCID=9209db0c
DTITLE=Steeve Greene Trio - Live In Your Living Room
DYEAR=2002
DGENRE=Jazz
TTITLE0=Molly Malone
TTITLE1=I'll Remember April
TTITLE2=Joshua Fought At The Walls Of Jericho
TTITLE3=Around Your Corner
TTITLE4=Minor Swing
TTITLE5=Secret Love
TTITLE6=Pent Up House
TTITLE7=My One And Only Love
TTITLE8=Up Jumped Spring
TTITLE9=Some Time Ago
TTITLE10=Tell Your Ma, Tell Your Pa
TTITLE11=Sweet Georgia Brown
EXTD=YEAR: 2002
EXTT0=
EXTT1=
EXTT2=
EXTT3=
EXTT4=
EXTT5=
EXTT6=
EXTT7=
EXTT8=
EXTT9=
EXTT10=
EXTT11=
PLAYORDER=
